<svg id="Layer_1" enable-background="new 0 0 511.986 511.986" height="512" viewBox="0 0 511.986 511.986" width="512" xmlns="http://www.w3.org/2000/svg"><g><path d="m436.911 178.13c-48.325-48.325-112.576-74.938-180.919-74.938-68.342 0-132.593 26.614-180.918 74.938-48.325 48.326-74.938 112.577-74.938 180.919v152.717h511.714v-152.717c0-68.342-26.613-132.593-74.939-180.919z" fill="#53433f"/><path d="m511.85 359.049c0-68.342-26.613-132.593-74.938-180.918s-112.576-74.938-180.919-74.938c-.004 0-.008 0-.011 0v408.574h255.868z" fill="#3e322e"/><path d="m255.981 103.192c-104.061 0-188.72 84.659-188.72 188.72v73.545c0 32.851 25.413 59.878 57.611 62.458v84.071h262.219v-84.071c32.198-2.58 57.61-29.607 57.61-62.458v-71.883c0-104.925-84.616-190.33-188.72-190.382z" fill="#f5f0ff"/><path d="m255.981 103.192v408.794h131.11v-84.071c32.198-2.58 57.61-29.607 57.61-62.458v-71.883c0-104.924-84.616-190.33-188.72-190.382z" fill="#e1dcf3"/><g><path d="m183.531 460.397h30v51.588h-30z" fill="#e1dcf3"/></g><g><path d="m240.993 460.397h30v51.588h-30z" fill="#e1dcf3"/></g><g><path d="m298.454 460.397h30v51.588h-30z" fill="#e1dcf3"/></g><path d="m182.788 264.392c-23.459 0-42.544 19.085-42.544 42.544s19.085 42.544 42.544 42.544 42.545-19.085 42.545-42.544-19.086-42.544-42.545-42.544z" fill="#e1dcf3"/><circle cx="329.174" cy="306.937" fill="#e1dcf3" r="42.544"/><path d="m452.438 118.792c-38.868-51.732-92.263-88.597-154.411-106.61l-42.035-12.182-42.033 12.182c-62.148 18.013-115.543 54.878-154.411 106.61-38.867 51.732-59.412 113.279-59.412 177.986v82.272c0-68.342 26.613-132.593 74.938-180.918s112.576-74.938 180.918-74.938c68.343 0 132.594 26.614 180.919 74.938 48.325 48.325 74.938 112.576 74.938 180.918v-82.272c.001-64.707-20.543-126.254-59.411-177.986z" fill="#725d57"/><g><path d="m298.454 460.397h30v51.588h-30z" fill="#cecef4"/></g><circle cx="329.174" cy="306.937" fill="#cecef4" r="42.544"/><path d="m255.981 460.397h15.012v51.588h-15.012z" fill="#cecef4"/><path d="m452.438 118.792c-38.868-51.732-92.263-88.597-154.411-106.61l-42.035-12.182-.011.003v123.19h.011c68.343 0 132.594 26.614 180.919 74.938 48.325 48.325 74.938 112.576 74.938 180.918v-82.272c.001-64.706-20.543-126.253-59.411-177.985z" fill="#53433f"/></g></svg>